<svg id="Layer_1" data-name="Layer 1" xmlns="http://www.w3.org/2000/svg" viewBox="0 0 100 72.44"><defs><style>.cls-1{fill:#cc2128;}.cls-1,.cls-2{fill-rule:evenodd;}.cls-2,.cls-3{fill:#fff;}</style></defs><title>rolling logo</title><path class="cls-1" d="M36,12.61H51.8a2.36,2.36,0,1,1-.23,4.7H36V31.47c0,.27.8.16,1.34.16H48.05l.63,1.06a21.49,21.49,0,0,0,2.24,2.9l.53.59.59.59a7.45,7.45,0,0,0,.58.53c.65.55,1,1,1.84,1.57l.64.48,1.71,1.15c.17.1.2.18.41.2.24-.46.45-.91.69-1.38l.66-1.42a13.94,13.94,0,0,1-1.39-.85A21,21,0,0,1,55,35.36l-2.49-2.54a19.74,19.74,0,0,1-1.83-2.64,10.5,10.5,0,0,1-.73-1.51h-11V20.22H52.13A5.38,5.38,0,0,0,55,19.3a4.32,4.32,0,0,0,1-.91,1.54,1.54,0,0,0,.28-.34,6.48,6.48,0,0,0,.49-.79,5.34,5.34,0,0,0-1-6,4.28,4.28,0,0,0-.33-.29,3.37,3.37,0,0,0-.34-.27,5.22,5.22,0,0,0-2.78-1H36Z"/><path class="cls-1" d="M36,6.74c0,.27.53.17.78.17H51.57A7.59,7.59,0,0,1,53.4,7a8.48,8.48,0,0,1,2.78,1.13A8.13,8.13,0,0,1,59,11.33a8.21,8.21,0,0,1,.06,7.16l-1.13,1.72a7.36,7.36,0,0,1-1.24,1.16,6.16,6.16,0,0,1-1.51.9,4.85,4.85,0,0,1-1.4.5,6.47,6.47,0,0,1-1.71.25H41.9v2.91H52.13a8.68,8.68,0,0,0,.56,1.56,14.22,14.22,0,0,0,1.12,2.07,11.43,11.43,0,0,0,1.36,1.84A15,15,0,0,0,56.74,33c.65.5,2.52,2,3.22,2.09.09-.35,1.24-2.24,1.35-2.68a12.1,12.1,0,0,1-2.49-1.54c-.21-.16-.26-.25-.44-.4a9.27,9.27,0,0,1-1.56-1.69,11.3,11.3,0,0,1-1.19-2.05c-.7-1.77-.67-1,1.09-1.93a10.94,10.94,0,0,0,4.15-3.57c.16-.24.29-.46.44-.68a9.52,9.52,0,0,0,.74-1.5,11.05,11.05,0,0,0-.66-9.56c-.17-.28-.34-.54-.52-.81A12.61,12.61,0,0,0,59,6.62,11.08,11.08,0,0,0,52.41,4H36Z"/><path class="cls-1" d="M17.9,52.39a6.36,6.36,0,0,0,.25,2,7.17,7.17,0,0,0,4.4,4.83,9.39,9.39,0,0,0,1.44.41,10.32,10.32,0,0,0,7.93-1.44,9.11,9.11,0,0,0,1.49-1.42l.39-.56a7.64,7.64,0,0,0,.91-5.74A6.25,6.25,0,0,0,33.47,48c-.37-.45-.14-.16-.45-.45a6.74,6.74,0,0,0-2.93-1.71,12.31,12.31,0,0,0-7.26,0,7.16,7.16,0,0,0-4.93,6.49m7.56-6.1A5.62,5.62,0,0,1,30,47.84a6.73,6.73,0,0,1,2,4.77,7,7,0,0,1-1.22,4.65c-.09.11-.2.22-.29.32l0,0-.15.14a1.43,1.43,0,0,1-.18.15,5.45,5.45,0,0,1-5.37.5,5.19,5.19,0,0,1-1.7-1l-.81-.87a6.87,6.87,0,0,1-1.26-3.16c-.27-2.47.1-5.22,2.21-6.39A5.59,5.59,0,0,1,25.46,46.29Z"/><path class="cls-1" d="M80.71,59.38c0,.41,1.93.17,2.63.17l2.58.05c.31,0,.48,0,.61-.22-.23-.34-.72-.14-1.25-.27-.89-.2-.94-1.15-.93-2.14,0-.57-.06-1-.06-1.51,0-1.08-.06-2-.05-3l-.06-1.51c0-.25,0-.53,0-.78s-.06-.38-.06-.73a7.55,7.55,0,0,1,1.25,1.16c.21.22.39.34.61.56l.31.31,2.2,2a2.89,2.89,0,0,1,.32.29,4.28,4.28,0,0,0,.33.29,3.57,3.57,0,0,1,.28.27l3.84,3.39c.5.44,1.81,1.64,2.26,2,.27.2.63.23.68-.18s0-.8,0-1.2a20.85,20.85,0,0,0,0-2.38c0-2.18.17-4.86.17-7,0-1.23-.19-2.57.76-2.82.4-.1,1,.05,1-.25h0c0-.12,0-.16-.16-.16H92.79c-.15,0-.16.08-.22.17.38.56,1.77-.28,2.08,1,.12.51,0,2.5.11,3,.08.69,0,1.56,0,2.31,0,.31.06.38.06.72,0,1.09,0,2,0,3.08-.46-.31-1.32-1.22-1.83-1.64l-2.91-2.68c-.44-.46-1.63-1.42-2.21-2l-1.12-1c-.79-.8-2.07-1.84-2.91-2.68-1.22-1.23-1.16-.61-1.16,1.1v1c0,.42,0,.66-.06,1,0,.67,0,1.35,0,2s-.06,1.34-.06,2c0,1.42-.06,2.65-.06,4,0,2.29-.54,1.93-1.53,2-.2,0-.37,0-.37.19"/><path class="cls-2" d="M25.57,13.85v17c0,.13,0,.17.16.17h3.53c.13,0,.17,0,.17-.17v-6.6H33v-3.8H29.43v-6.6c0-.13,0-.17-.17-.17H25.73c-.12,0-.16,0-.16.17"/><path class="cls-1" d="M.17,45.79c0,.41,1.52,0,1.88.64s.19,7.51.19,8.47l-.08,3c-.07.46-.07.94-.38,1.13s-1,.08-1.33.25c0,.29,0,.15.1.24s1.4,0,1.64,0c1.26,0,2.09,0,3.35.06.25,0,1.23.08,1.35-.15s0-.07,0-.13-.07-.14-.45-.16c-1.88-.12-1.68.08-1.68-5.32H6.61a.6.6,0,0,1,.54.24l3.38,4.11c1.71,1.71,3.16,1.41,5.58,1.41.49,0,.82-.39-.16-.45a3.69,3.69,0,0,1-1.89-.73,7.4,7.4,0,0,1-1.12-1c-.27-.25-.09,0-.45-.44l-.85-.89,0,0-2.25-2.5a3.06,3.06,0,0,1-.4-.49c.32-.22.59-.47.9-.72a7.4,7.4,0,0,0,.83-.85,5.23,5.23,0,0,0,.65-1A3.26,3.26,0,0,0,9,45.86a7.81,7.81,0,0,0-1.66-.24h-7c-.12,0-.16,0-.17.16ZM7,52.89c-.44,0-2.24.08-2.24-.39V46.79c0-.5,4-.72,4.36,2.47a4.22,4.22,0,0,1-.37,2.42A2.12,2.12,0,0,1,7,52.89Z"/><path class="cls-2" d="M69,20.45H65.33v3.8H69V31h3.8V13.85c0-.13,0-.17-.17-.17H69Z"/><path class="cls-2" d="M19.53,15.08V29.62c0,.13,0,.17.16.17h3.47c.13,0,.17,0,.17-.17V14.91H19.69c-.12,0-.16,0-.16.17"/><path class="cls-2" d="M75,15.08V29.62c0,.13,0,.17.17.17h3.46c.13,0,.17,0,.17-.17V15.08c0-.13,0-.17-.17-.17H75.18c-.13,0-.17,0-.17.17"/><path class="cls-1" d="M39.61,45.79c0,.38,1,0,1.63.49a1,1,0,0,1,.27.79c0,.37.05.63.05,1.07,0,1.67.1,8.81-.13,10.15-.07.39-.17.7-.49.8s-.87,0-1.17.18c0,.28.14.35.67.34a8.44,8.44,0,0,1,1-.06l6.16.05c.43,0,2.16.24,2.49-.24.13-.19.82-3.2.08-2.67-.41.29.24,1.85-2.63,1.85a13.56,13.56,0,0,1-2.24-.11c-1.3-.28-1-1.19-1.06-2.63,0-.29-.06-.47-.06-.84,0-1.11,0-6.14,0-6.68.16-1-.35-2.17,1-2.27.47,0,.93,0,1-.18s-.07-.21-.2-.21H39.77c-.13,0-.16,0-.16.17"/><path class="cls-1" d="M54.48,45.79c.22.33.72.16,1.14.26,1.13.27.71,1,.83,2,.07.48.08,8.41,0,9.63-.15,1.84-.6,1.4-1.47,1.56-.56.1-.25.45.46.4a39.55,39.55,0,0,1,4.46,0c.85.12,2-.07,2.91.06a5.76,5.76,0,0,0,1.38,0c.59-.09.82,0,1-.55a18.85,18.85,0,0,0,.29-1.9c.09-.65-.35-.73-.47-.24a3.91,3.91,0,0,1-.12.49,1.57,1.57,0,0,1-.5.68c-.57.52-1.76.43-2.53.43-2.68,0-2.69-.34-2.69-3.13s-.06-5.56.06-8.17c0-.69,0-1.19,1-1.23.44,0,.66,0,1-.17-.07-.12,0-.22-.23-.22h-6.2c-.14,0-.18.08-.23.17"/><path class="cls-1" d="M69.58,45.79c0,.21.39.21.62.22.89,0,1.17.33,1.17,1.34v9.74a4.62,4.62,0,0,1-.25,1.75c-.21.38-.75.29-1.17.35s-.22,0-.37.19c.28.42,1.29.17,1.74.16,1.32,0,2.26,0,3.58.06.53,0,1.35.11,1.45-.28-.44-.29-1.27-.06-1.77-.29s-.52-1-.52-1.61c0-1.45-.09-10.12.08-10.83s1.14-.45,1.65-.69c0-.25,0-.28-.28-.28H69.75c-.13,0-.17,0-.17.17"/><path class="cls-2" d="M81.05,18.26v8.17c0,.13,0,.17.17.17h3.69V18.1H81.22c-.13,0-.17,0-.17.16"/><rect class="cls-3" x="13.49" y="18.1" width="3.8" height="8.5"/><path class="cls-2" d="M21.54,67.83H20.7a2,2,0,0,1-2-3.06,2.75,2.75,0,0,1,2.44-1.19,6.65,6.65,0,0,1,1.08.14,2,2,0,0,1,.24,3.92,3,3,0,0,1-.93.19M19.41,65.7c0-2.48,2.37-1.83,2.88-1.31a1.9,1.9,0,0,1,.59,1.76c0,1.37-1.81,1.85-2.87.91A2,2,0,0,1,19.41,65.7Z"/><path class="cls-2" d="M64.16,67.66l1.51.11c.29,0,.27,0,.39-.11-.3,0-.56,0-.65-.25a23.66,23.66,0,0,1-.13-2.55c.44.3,3.4,3,3.69,3h.17c0-.82,0-1.48,0-2.24,0-1.32-.18-1.73.56-1.79H68c.73.06.67.06.67,1.45,0,.55.06.9.06,1.4-.2-.05-.48-.37-.69-.54l-2.14-1.78c-.42-.32-.63-.69-1-.7V64.8c0,.46-.06.71-.06,1.12s0,.79,0,1.18-.13.56-.62.56"/><path class="cls-2" d="M72.16,63.69v.11c.54,0,.67.07.67.67a18.92,18.92,0,0,1-.11,3.13,2.73,2.73,0,0,1-.45.06v.11h1.62c.32,0,.58,0,.86.06H75l.4-.06a1.55,1.55,0,0,0,.11-.84c-.55.15.45.5-1.34.5-.19,0-.22,0-.39-.05a7.31,7.31,0,0,1-.06-1.62,5.34,5.34,0,0,1,1.07,0c.24.07.22.11.22.39.29,0,.2,0,.28-.89-.38,0-.18.11-.39.11H73.72V64c.72,0,1.35-.12,1.4.45h.17c0-.28,0-.47,0-.84-1.08.09-2.07.06-3.18.06"/><path class="cls-2" d="M31.22,67.66H33a.67.67,0,0,1-.45-.11c0-.19.4-1.12.62-1.12,1.57,0,1.33-.11,1.51.27.45.93.42.67.28,1.07l1.79-.11c-.67,0-.72-.25-1-.67s-.37-.71-.57-1.1l-1.1-2.26h-.28c-.06.23-.91,1.87-1.08,2.22l-.54,1.08c-.23.45-.27.73-1,.73m2.57-2.86c.09.4.47.92.56,1.29H33.17A5.46,5.46,0,0,1,33.79,64.8Z"/><path class="cls-2" d="M11.92,64.47c.39-.11.07-.39.72-.4.46,0,.7,0,1.13,0a31.26,31.26,0,0,1-.06,3.53,1,1,0,0,1-.5.11c.14.19.49.11,1,.11h1.18v-.11c-.64,0-.73-.09-.73-.79V64c.42,0,.67,0,1.06.06a.63.63,0,0,1,.43.13c.22.24-.1.22.24.32.1-1.11.16-.84-.39-.84H12.59a.88.88,0,0,1-.45-.12,2,2,0,0,0-.22.9"/><path class="cls-2" d="M85.69,66.93c0,.79-1.82,1-1.84-.28h-.17c-.09,1.1-.27,1.17.95,1.18h.45c.68,0,1.34-.48,1.34-1s-.11-.89-.88-1.41c-.28-.19-1.08-.58-1.08-.94,0-.64,1-.7,1.42-.35s.08.44.37.52c.09-1,.25-.89-.7-1-.74-.1-1.93.3-1.79,1.17.19,1.16,1.93,1.33,1.93,2.16"/><path class="cls-2" d="M78.31,64.53c0,.66.22.94.9,1.38.33.21,1,.54,1,1,0,.76-1.82,1-1.85-.28H78.2a2.59,2.59,0,0,0-.06.9c0,.14.25.24.6.28h.8a2.14,2.14,0,0,0,.95-.28,1,1,0,0,0,.45-1c0-1.14-2-1.5-2-2.13s1-.71,1.42-.35.11.37.31.52a2,2,0,0,0,.12-.79c0-.41-2.52-.43-2.52.68"/><path class="cls-2" d="M47.55,63.8a4.1,4.1,0,0,1,.61.11A24.62,24.62,0,0,1,48.22,67c0,.49-.06.62-.56.62h2.18c-.62,0-.73-.11-.73-.67V65.76c2.17,0,.92.28,1.51.44,0-.25.09-.64.12-.89-.39,0-.18.11-.4.11H49.11V64a5.26,5.26,0,0,1,1.33.08c.18.08.18.14.18.37h.17c.1-1.16.73-.75-2.8-.79-.29,0-.32,0-.44.12"/><path class="cls-2" d="M57.67,64.47c.33-.22.09-.4.72-.39.45,0,.64-.06,1.07-.06a31.26,31.26,0,0,1-.06,3.53,1,1,0,0,1-.5.11h2.18c-.63,0-.72-.09-.72-.79,0-3.55-.24-2.81,1-2.79.89,0,.39.34.78.45l0-.73c0-.28-.21-.11-.44-.11H58.4c-.31,0-.33-.06-.62-.06a1.37,1.37,0,0,0-.11.84"/><path class="cls-2" d="M25.85,64.47c.38-.26,0-.4.83-.39,1.24,0,1-.75,1,2.24,0,.38,0,.57-.05.89s-.1.44-.51.45h2.13c-.83,0-.65-.16-.73-1.12V64.19c0-.31.68-.12.95-.11.94,0,.38.34.78.45a2.24,2.24,0,0,0,.06-.9c-.25,0-.22.06-.5.06H26.57c-.31,0-.33-.06-.61-.06-.06.24-.21.63-.11.84"/><path class="cls-2" d="M38.37,63.8l.56.11a2.28,2.28,0,0,1,.06.39,18.73,18.73,0,0,1-.11,3.3l-.45.17a19.32,19.32,0,0,1,2.16,0l.23,0h.7a.44.44,0,0,0,.31-.41,5,5,0,0,0,0-.55c-.28.08-.09.14-.29.38s-.74.18-1.16.18-.51-.11-.51-.5V64.08c0-.25.38-.26.62-.28Z"/><path class="cls-2" d="M53.42,63.8c.31.07.56,0,.56.39v3c0,.43-.14.51-.56.51l1.68.11c.3,0,.38.06.5-.11-.46,0-.73,0-.73-.39V64.08c0-.24.34-.26.56-.28Z"/></svg>